# xmcd
#
# Track frame offsets:
#	151
#	13548
#	26642
#	38975
#	52079
#	65394
#	77059
#	88588
#	100592
#	114794
#	127551
#	140407
#	153497
#	167877
#	181004
#	193239
#	206427
#	219135
#
# Disc length: 3111 seconds
#
# Revision: 0
# Processed by: cddbd v1.5.2PL0 Copyright (c) Steve Scherf et al.
# Submitted via: dBpowerAMP V4.0
#
DISCID=e20c2512
DTITLE=Big Maceo and Tampa Red - The best of
DYEAR=2001
DGENRE=Blues
TTITLE0=Big Road Blues
TTITLE1=Winter Time Blues
TTITLE2=Broke and Hungry Blues
TTITLE3=It's All Over Now
TTITLE4=Chicago Breakdown (instrumental)
TTITLE5=Kidman Blues
TTITLE6=I' So Worried
TTITLE7=My Own Troubles
TTITLE8=Maceo's 32-20
TTITLE9=Since You Been Gone
TTITLE10=Anytime For You
TTITLE11=Worried Life Blues
TTITLE12=Ramblin' Mind Blues
TTITLE13=Country Jail Blues
TTITLE14=So Long Baby
TTITLE15=Bye Bye Baby
TTITLE16=I Got the Blues
TTITLE17=Why Should I Hang Around?
EXTD=From Blues Forever series
EXTT0=
EXTT1=
EXTT2=
EXTT3=
EXTT4=
EXTT5=
EXTT6=
EXTT7=
EXTT8=
EXTT9=
EXTT10=
EXTT11=
EXTT12=
EXTT13=
EXTT14=
EXTT15=
EXTT16=
EXTT17=
PLAYORDER=
